<?xml version="1.0" encoding="UTF-8"?>
<svg id="Calque_2" data-name="Calque 2" xmlns="http://www.w3.org/2000/svg" viewBox="0 0 1882.17 1882.17">
  <defs>
    <style>
      .cls-1 {
        fill: #fff;
      }
    </style>
  </defs>
  <g id="Calque_1-2" data-name="Calque 1">
    <g>
      <path class="cls-1" d="m941.08,0C421.34,0,0,421.34,0,941.09s421.34,941.08,941.08,941.08,941.09-421.34,941.09-941.08S1460.84,0,941.08,0Zm0,1796.71c-472.55,0-855.62-383.08-855.62-855.62S468.54,85.47,941.08,85.47s855.62,383.07,855.62,855.62-383.08,855.62-855.62,855.62Z"/>
      <path class="cls-1" d="m1458.47,729.99s-10.34-72.75-41.98-104.79c-40.16-42.05-85.14-42.27-105.78-44.72-147.76-10.68-369.39-10.68-369.39-10.68h-.44s-221.63,0-369.39,10.68c-20.64,2.45-65.62,2.68-105.79,44.72-31.64,32.04-41.95,104.79-41.95,104.79,0,0-10.57,85.43-10.57,170.87v80.11c0,85.44,10.57,170.88,10.57,170.88,0,0,10.3,72.75,41.95,104.81,40.16,42.03,92.92,40.73,116.41,45.12,84.49,8.11,358.98,10.62,358.98,10.62,0,0,221.85-.33,369.62-11.01,20.64-2.47,65.62-2.69,105.78-44.73,31.64-32.05,41.98-104.81,41.98-104.81,0,0,10.54-85.43,10.54-170.88v-80.11c0-85.44-10.54-170.87-10.54-170.87Zm-626.43,348.05v-296.66l285.28,148.87-285.28,147.8Z"/>
    </g>
  </g>
</svg>